squatMotion																																																																																																																																																																																																																				
version=1																																																																																																																																																																																																																				
nRows=8																																																																																																																																																																																																																				
nColumns=213																																																																																																																																																																																																																				
inDegrees=yes																																																																																																																																																																																																																				
endheader																																																																																																																																																																																																																				
time	platform_rx	platform_ry	platform_rz	platform_ty	pelvis_tilt	pelvis_list	pelvis_rotation	pelvis_tx	pelvis_ty	pelvis_tz	hip_flexion_r	hip_adduction_r	hip_rotation_r	knee_angle_r	knee_angle_r_beta	ankle_angle_r	subtalar_angle_r	mtp_angle_r	hip_flexion_l	hip_adduction_l	hip_rotation_l	knee_angle_l	knee_angle_l_beta	ankle_angle_l	subtalar_angle_l	mtp_angle_l	lumbar_extension	lumbar_bending	lumbar_rotation	arm_flex_r	arm_add_r	arm_rot_r	elbow_flex_r	pro_sup_r	wrist_flex_r	wrist_dev_r	arm_flex_l	arm_add_l	arm_rot_l	elbow_flex_l	pro_sup_l	wrist_flex_l	wrist_dev_l	platform_rx_u	platform_ry_u	platform_rz_u	platform_ty_u	pelvis_tilt_u	pelvis_list_u	pelvis_rotation_u	pelvis_tx_u	pelvis_ty_u	pelvis_tz_u	hip_flexion_r_u	hip_adduction_r_u	hip_rotation_r_u	knee_angle_r_u	knee_angle_r_beta_u	ankle_angle_r_u	subtalar_angle_r_u	mtp_angle_r_u	hip_flexion_l_u	hip_adduction_l_u	hip_rotation_l_u	knee_angle_l_u	knee_angle_l_beta_u	ankle_angle_l_u	subtalar_angle_l_u	mtp_angle_l_u	lumbar_extension_u	lumbar_bending_u	lumbar_rotation_u	arm_flex_r_u	arm_add_r_u	arm_rot_r_u	elbow_flex_r_u	pro_sup_r_u	wrist_flex_r_u	wrist_dev_r_u	arm_flex_l_u	arm_add_l_u	arm_rot_l_u	elbow_flex_l_u	pro_sup_l_u	wrist_flex_l_u	wrist_dev_l_u	addbrev_r.activation	addlong_r.activation	addlong_r.fiber_length	addmagDist_r.activation	addmagIsch_r.activation	addmagIsch_r.fiber_length	addmagMid_r.activation	addmagProx_r.activation	bflh_r.activation	bflh_r.fiber_length	bfsh_r.activation	edl_r.activation	edl_r.fiber_length	ehl_r.activation	ehl_r.fiber_length	fdl_r.activation	fdl_r.fiber_length	fhl_r.activation	fhl_r.fiber_length	gaslat_r.activation	gaslat_r.fiber_length	gasmed_r.activation	gasmed_r.fiber_length	glmax1_r.activation	glmax2_r.activation	glmax3_r.activation	glmed1_r.activation	glmed2_r.activation	glmed3_r.activation	glmin1_r.activation	glmin2_r.activation	glmin3_r.activation	glmin3_r.fiber_length	grac_r.activation	iliacus_r.activation	perbrev_r.activation	perbrev_r.fiber_length	perlong_r.activation	perlong_r.fiber_length	piri_r.activation	piri_r.fiber_length	psoas_r.activation	recfem_r.activation	recfem_r.fiber_length	sart_r.activation	semimem_r.activation	semimem_r.fiber_length	semiten_r.activation	semiten_r.fiber_length	soleus_r.activation	soleus_r.fiber_length	tfl_r.activation	tfl_r.fiber_length	tibant_r.activation	tibant_r.fiber_length	tibpost_r.activation	tibpost_r.fiber_length	vasint_r.activation	vasint_r.fiber_length	vaslat_r.activation	vaslat_r.fiber_length	vasmed_r.activation	vasmed_r.fiber_length	addbrev_l.activation	addlong_l.activation	addlong_l.fiber_length	addmagDist_l.activation	addmagIsch_l.activation	addmagIsch_l.fiber_length	addmagMid_l.activation	addmagProx_l.activation	bflh_l.activation	bflh_l.fiber_length	bfsh_l.activation	edl_l.activation	edl_l.fiber_length	ehl_l.activation	ehl_l.fiber_length	fdl_l.activation	fdl_l.fiber_length	fhl_l.activation	fhl_l.fiber_length	gaslat_l.activation	gaslat_l.fiber_length	gasmed_l.activation	gasmed_l.fiber_length	glmax1_l.activation	glmax2_l.activation	glmax3_l.activation	glmed1_l.activation	glmed2_l.activation	glmed3_l.activation	glmin1_l.activation	glmin2_l.activation	glmin3_l.activation	glmin3_l.fiber_length	grac_l.activation	iliacus_l.activation	perbrev_l.activation	perbrev_l.fiber_length	perlong_l.activation	perlong_l.fiber_length	piri_l.activation	piri_l.fiber_length	psoas_l.activation	recfem_l.activation	recfem_l.fiber_length	sart_l.activation	semimem_l.activation	semimem_l.fiber_length	semiten_l.activation	semiten_l.fiber_length	soleus_l.activation	soleus_l.fiber_length	tfl_l.activation	tfl_l.fiber_length	tibant_l.activation	tibant_l.fiber_length	tibpost_l.activation	tibpost_l.fiber_length	vasint_l.activation	vasint_l.fiber_length	vaslat_l.activation	vaslat_l.fiber_length	vasmed_l.activation	vasmed_l.fiber_length
0	20	0	0	0.25	-0.00000018	0	0	0.138	0.94299995	0	0.00002819	-5.00000136	-9.99999952	0.0453786	0.0453786	0.00000468	8.93599983	0	0.00002819	-5.0000014	-9.99999951	0.0453786	0.0453786	0.00000468	0	0	0	0	0	0	-0.0000016	89.99503993	0.04536616	0.04536338	0	0	0	-0.0000016	89.99735379	0.04536616	0.04536338	0	0	0	0	0	0	0	0	0	0	0	0	0	0	0	0	0	0	0	0	0	0	0	0	0	0	0	0	0	0	0	0	0	0	0	0	0	0	0	0	0	0	0	0	0	0.01	0.01	0.11841799	0.01	0.01	0.12922035	0.01	0.01	0.01	0.09099974	0.01	0.01	0.07128531	0.01	0.07800351	0.01	0.04283486	0.01	0.04914703	0.01	0.07166472	0.01	0.06178137	0.01	0.01	0.01	0.01	0.01	0.01	0.01	0.01	0.01	0.03229862	0.01	0.01	0.01	0.05223624	0.01	0.05734609	0.01	0.01675627	0.01	0.01	0.06300331	0.01	0.01	0.0670714	0.01	0.2134017	0.01	0.04757403	0.01	0.09255542	0.01	0.06474727	0.01	0.03672199	0.01	0.0797461	0.01	0.07871572	0.01	0.08039326	0.01	0.01	0.11841799	0.01	0.01	0.12922035	0.01	0.01	0.01	0.09099974	0.01	0.01	0.0692326	0.01	0.07815642	0.01	0.04540191	0.01	0.05137227	0.01	0.07214661	0.01	0.06188299	0.01	0.01	0.01	0.01	0.01	0.01	0.01	0.01	0.01	0.03229862	0.01	0.01	0.01	0.04853813	0.01	0.05409332	0.01	0.01675627	0.01	0.01	0.06300331	0.01	0.01	0.0670714	0.01	0.2134017	0.01	0.04795166	0.01	0.09255542	0.01	0.06619697	0.01	0.03920036	0.01	0.0797461	0.01	0.07871572	0.01	0.08039326
0.03	20	0	0	0.25	-0.00000018	0	0	0.138	0.94299995	0	0.00002819	-5.00000136	-9.99999952	0.0453786	0.0453786	0.00000468	8.93599983	0	0.00002819	-5.0000014	-9.99999951	0.0453786	0.0453786	0.00000468	0	0	0	0	0	0	-0.0000016	89.99503993	0.04536616	0.04536338	0	0	0	-0.0000016	89.99735379	0.04536616	0.04536338	0	0	0	0	0	0	0	0	0	0	0	0	0	0	0	0	0	0	0	0	0	0	0	0	0	0	0	0	0	0	0	0	0	0	0	0	0	0	0	0	0	0	0	0	0	0.01	0.01	0.11841799	0.01	0.01	0.12922035	0.01	0.01	0.01	0.09099974	0.01	0.01	0.07128531	0.01	0.07800351	0.01	0.04283486	0.01	0.04914703	0.01	0.07166472	0.01	0.06178137	0.01	0.01	0.01	0.01	0.01	0.01	0.01	0.01	0.01	0.03229862	0.01	0.01	0.01	0.05223624	0.01	0.05734609	0.01	0.01675627	0.01	0.01	0.06300331	0.01	0.01	0.0670714	0.01	0.2134017	0.01	0.04757403	0.01	0.09255542	0.01	0.06474727	0.01	0.03672199	0.01	0.0797461	0.01	0.07871572	0.01	0.08039326	0.01	0.01	0.11841799	0.01	0.01	0.12922035	0.01	0.01	0.01	0.09099974	0.01	0.01	0.0692326	0.01	0.07815642	0.01	0.04540191	0.01	0.05137227	0.01	0.07214661	0.01	0.06188299	0.01	0.01	0.01	0.01	0.01	0.01	0.01	0.01	0.01	0.03229862	0.01	0.01	0.01	0.04853813	0.01	0.05409332	0.01	0.01675627	0.01	0.01	0.06300331	0.01	0.01	0.0670714	0.01	0.2134017	0.01	0.04795166	0.01	0.09255542	0.01	0.06619697	0.01	0.03920036	0.01	0.0797461	0.01	0.07871572	0.01	0.08039326
0.07	20	0	0	0.25	-0.00000018	0	0	0.169	0.942	0	0.00005137	-5.00000727	-9.99998725	4.068083	4.068083	0.95600255	0	0	0.00005137	-5.0000073	-9.99998724	4.06808138	4.06808138	0.95600258	0	0	0	0	0	9.99999816	-0.00000419	89.95245979	0.06230922	0.06230351	0	0	9.99999822	-0.000002	89.95345223	0.06230922	0.06230351	0	0	0	0	0	0	0	0	0	0	0	0	0	0	0	0	0	0	0	0	0	0	0	0	0	0	0	0	0	0	0	0	0	0	0	0	0	0	0	0	0	0	0	0	0	0.01	0.01	0.11841798	0.01	0.01	0.12922037	0.01	0.01	0.01	0.08897174	0.01	0.01	0.06864465	0.01	0.07757128	0.01	0.04551485	0.01	0.051591	0.01	0.0714721	0.01	0.06150975	0.01	0.01	0.01	0.01	0.01	0.01	0.01	0.01	0.01	0.03229863	0.01	0.01	0.01	0.04863045	0.01	0.05422286	0.01	0.01675628	0.01	0.01	0.06623856	0.01	0.01	0.06485645	0.01	0.21077654	0.01	0.04853235	0.01	0.09371249	0.01	0.06549969	0.01	0.0393256	0.01	0.08296183	0.01	0.08149553	0.01	0.08312659	0.01	0.01	0.11841798	0.01	0.01	0.12922037	0.01	0.01	0.01	0.08897174	0.01	0.01	0.06864465	0.01	0.07757128	0.01	0.04551485	0.01	0.051591	0.01	0.07147211	0.01	0.06150975	0.01	0.01	0.01	0.01	0.01	0.01	0.01	0.01	0.01	0.03229863	0.01	0.01	0.01	0.04863045	0.01	0.05422286	0.01	0.01675628	0.01	0.01	0.06623856	0.01	0.01	0.06485646	0.01	0.21077654	0.01	0.04853235	0.01	0.09371249	0.01	0.06549969	0.01	0.0393256	0.01	0.08296182	0.01	0.08149553	0.01	0.08312658
0.1	20	0	0	0.25	-0.00000018	0	0	0.17	0.936	0	5.57300876	-7.31200002	-9.99997417	15.74599237	15.74599237	5.80299976	0.00000004	0	5.57301129	-7.31200001	-9.99997416	15.74599227	15.74599227	5.80299976	0	0	0	0	0	18.99999967	-0.00000696	89.93211925	0.07636168	0.07635255	0	0	18.99999964	-0.00000476	89.93262682	0.07636168	0.07635255	0	0	0	0	0	0	0	0	0	0	0	0	0	0	0	0	0	0	0	0	0	0	0	0	0	0	0	0	0	0	0	0	0	0	0	0	0	0	0	0	0	0	0	0	0	0.01	0.01	0.11639206	0.01	0.01	0.13484797	0.01	0.01	0.01	0.08857598	0.01	0.01	0.06564494	0.01	0.0744523	0.01	0.04602901	0.01	0.05265597	0.01	0.0707716	0.01	0.06138518	0.01	0.01	0.01	0.01	0.01	0.01	0.01	0.01	0.01	0.03244022	0.01	0.01	0.01	0.04908053	0.01	0.05486339	0.01	0.01702682	0.01	0.01	0.07156601	0.01	0.01	0.06282299	0.01	0.20841279	0.01	0.051366	0.01	0.09229382	0.01	0.06194149	0.01	0.0399311	0.01	0.09206996	0.01	0.09015152	0.01	0.09114046	0.01	0.01	0.11639206	0.01	0.01	0.13484797	0.01	0.01	0.01	0.08857599	0.01	0.01	0.06564494	0.01	0.0744523	0.01	0.04602901	0.01	0.05265597	0.01	0.0707716	0.01	0.06138518	0.01	0.01	0.01	0.01	0.01	0.01	0.01	0.01	0.01	0.03244022	0.01	0.01	0.01	0.04908053	0.01	0.05486339	0.01	0.01702682	0.01	0.01	0.07156601	0.01	0.01	0.06282299	0.01	0.20841279	0.01	0.051366	0.01	0.09229382	0.01	0.06194149	0.01	0.0399311	0.01	0.09206996	0.01	0.09015152	0.01	0.09114046
0.13	20	0	0	0.25	-0.00000018	0	0	0.17	0.936	0	5.57300876	-7.31200002	-9.99997417	15.74599237	15.74599237	5.80299976	0.00000004	0	5.57301129	-7.31200001	-9.99997416	15.74599227	15.74599227	5.80299976	0	0	0	0	0	18.99999967	-0.00000696	89.93211925	0.07636168	0.07635255	0	0	18.99999964	-0.00000476	89.93262682	0.07636168	0.07635255	0	0	0	0	0	0	0	0	0	0	0	0	0	0	0	0	0	0	0	0	0	0	0	0	0	0	0	0	0	0	0	0	0	0	0	0	0	0	0	0	0	0	0	0	0	0.01	0.01	0.11639206	0.01	0.01	0.13484797	0.01	0.01	0.01	0.08857598	0.01	0.01	0.06564494	0.01	0.0744523	0.01	0.04602901	0.01	0.05265597	0.01	0.0707716	0.01	0.06138518	0.01	0.01	0.01	0.01	0.01	0.01	0.01	0.01	0.01	0.03244022	0.01	0.01	0.01	0.04908053	0.01	0.05486339	0.01	0.01702682	0.01	0.01	0.07156601	0.01	0.01	0.06282299	0.01	0.20841279	0.01	0.051366	0.01	0.09229382	0.01	0.06194149	0.01	0.0399311	0.01	0.09206996	0.01	0.09015152	0.01	0.09114046	0.01	0.01	0.11639206	0.01	0.01	0.13484797	0.01	0.01	0.01	0.08857599	0.01	0.01	0.06564494	0.01	0.0744523	0.01	0.04602901	0.01	0.05265597	0.01	0.0707716	0.01	0.06138518	0.01	0.01	0.01	0.01	0.01	0.01	0.01	0.01	0.01	0.03244022	0.01	0.01	0.01	0.04908053	0.01	0.05486339	0.01	0.01702682	0.01	0.01	0.07156601	0.01	0.01	0.06282299	0.01	0.20841279	0.01	0.051366	0.01	0.09229382	0.01	0.06194149	0.01	0.0399311	0.01	0.09206996	0.01	0.09015152	0.01	0.09114046
0.17	20	0	0	0.25	-0.00000018	0	0	0.189	0.929	0	5.57301037	-7.31200034	-9.9999731	18.29198858	18.29198858	7.57699963	-0.00000013	0	5.5730129	-7.31200033	-9.9999731	18.29198943	18.29198943	7.57699964	0	0	0	0	0	23.99999953	-0.00000717	89.93068326	0.07764166	0.07763233	0	0	23.9999995	-0.00000498	89.93118019	0.07764166	0.07763233	0	0	0	0	0	0	0	0	0	0	0	0	0	0	0	0	0	0	0	0	0	0	0	0	0	0	0	0	0	0	0	0	0	0	0	0	0	0	0	0	0	0	0	0	0	0.01	0.01	0.11639206	0.01	0.01	0.13484797	0.01	0.01	0.01	0.08718916	0.01	0.01	0.06454303	0.01	0.07325153	0.01	0.04619935	0.01	0.05302628	0.01	0.07102238	0.01	0.06171113	0.01	0.01	0.01	0.01	0.01	0.01	0.01	0.01	0.01	0.03244022	0.01	0.01	0.01	0.04923752	0.01	0.05509063	0.01	0.01702682	0.01	0.01	0.07360923	0.01	0.01	0.06121574	0.01	0.20651458	0.01	0.05233785	0.01	0.09299758	0.01	0.06062993	0.01	0.04013984	0.01	0.0939965	0.01	0.09208077	0.01	0.09286524	0.01	0.01	0.11639206	0.01	0.01	0.13484797	0.01	0.01	0.01	0.08718916	0.01	0.01	0.06454303	0.01	0.07325153	0.01	0.04619935	0.01	0.05302628	0.01	0.07102238	0.01	0.06171113	0.01	0.01	0.01	0.01	0.01	0.01	0.01	0.01	0.01	0.03244022	0.01	0.01	0.01	0.04923752	0.01	0.05509063	0.01	0.01702682	0.01	0.01	0.07360923	0.01	0.01	0.06121575	0.01	0.20651458	0.01	0.05233785	0.01	0.09299758	0.01	0.06062993	0.01	0.04013984	0.01	0.0939965	0.01	0.09208077	0.01	0.09286524
0.2	20	0	0	0.25	-1.06699998	0	0	0.161	0.92599999	0	10.31600204	-8.26100001	-9.9999682	22.18498379	22.18498379	9.95499863	-0.00000019	0	10.31600117	-8.26100001	-9.9999682	22.18498477	22.18498477	9.9549986	0	0	0	0	0	29.99999831	-0.0000082	89.92533667	0.08227263	0.08226275	0	0	29.99999828	-0.00000601	89.92578796	0.08227263	0.08226275	0	0	0	0	0	0	0	0	0	0	0	0	0	0	0	0	0	0	0	0	0	0	0	0	0	0	0	0	0	0	0	0	0	0	0	0	0	0	0	0	0	0	0	0	0	0.01	0.01	0.11379518	0.01	0.01	0.13927335	0.01	0.01	0.01	0.08967738	0.01	0.01	0.06306258	0.01	0.07163596	0.01	0.04641574	0.01	0.0534935	0.01	0.07117859	0.01	0.06198905	0.01	0.01	0.01	0.01	0.01	0.01	0.01	0.01	0.01	0.03325376	0.01	0.01	0.01	0.04944127	0.01	0.05538881	0.01	0.01770462	0.01	0.01	0.07331399	0.01	0.01	0.0627096	0.01	0.20829717	0.01	0.05357375	0.01	0.09074214	0.01	0.05886606	0.01	0.04040835	0.01	0.09689871	0.01	0.09501417	0.01	0.09546808	0.01	0.01	0.11379518	0.01	0.01	0.13927335	0.01	0.01	0.01	0.08967738	0.01	0.01	0.06306258	0.01	0.07163596	0.01	0.04641574	0.01	0.0534935	0.01	0.07117859	0.01	0.06198905	0.01	0.01	0.01	0.01	0.01	0.01	0.01	0.01	0.01	0.03325376	0.01	0.01	0.01	0.04944127	0.01	0.05538881	0.01	0.01770462	0.01	0.01	0.07331399	0.01	0.01	0.0627096	0.01	0.20829717	0.01	0.05357375	0.01	0.09074215	0.01	0.05886606	0.01	0.04040835	0.01	0.09689872	0.01	0.09501417	0.01	0.09546808
0.23	20	0	0	0.25	-5.33599955	0	0	0.119	0.90299999	0	23.36000118	-8.26100109	-9.99996162	32.88797907	32.88797907	12.57899566	-0.00000018	0	23.36000003	-8.26100108	-9.99996161	32.88797908	32.88797908	12.57899564	0	0	0	0	0	30.99999612	-0.00000955	89.91867664	0.08808231	0.08807047	0	0	30.99999575	-0.00000736	89.91907756	0.08808231	0.08807047	0	0	0	0	0	0	0	0	0	0	0	0	0	0	0	0	0	0	0	0	0	0	0	0	0	0	0	0	0	0	0	0	0	0	0	0	0	0	0	0	0	0	0	0	0	0.01	0.01	0.10445396	0.01	0.01	0.15091287	0.01	0.01	0.01	0.09608095	0.01	0.01	0.06142536	0.01	0.06985	0.01	0.04663838	0.01	0.05396331	0.01	0.06919954	0.01	0.06041035	0.01	0.01	0.01	0.01	0.01	0.01	0.01	0.01	0.01	0.03727874	0.01	0.01	0.01	0.04965702	0.01	0.05570894	0.01	0.02107949	0.01	0.01	0.07228777	0.01	0.01	0.06627726	0.01	0.21236325	0.01	0.05484936	0.01	0.08559858	0.01	0.05691487	0.01	0.04068917	0.01	0.10449842	0.01	0.10278181	0.01	0.10226668	0.01	0.01	0.10445396	0.01	0.01	0.15091287	0.01	0.01	0.01	0.09608095	0.01	0.01	0.06142536	0.01	0.06985	0.01	0.04663838	0.01	0.05396331	0.01	0.06919954	0.01	0.06041035	0.01	0.01	0.01	0.01	0.01	0.01	0.01	0.01	0.01	0.03727874	0.01	0.01	0.01	0.04965702	0.01	0.05570894	0.01	0.02107949	0.01	0.01	0.07228777	0.01	0.01	0.06627726	0.01	0.21236325	0.01	0.05484936	0.01	0.08559858	0.01	0.05691487	0.01	0.04068917	0.01	0.10449842	0.01	0.10278181	0.01	0.10226668
